<?xml version="1.0" encoding="UTF-8" standalone="no"?>
<!-- Created with Inkscape (http://www.inkscape.org/) -->

<svg
   xmlns:dc="http://purl.org/dc/elements/1.1/"
   xmlns:cc="http://creativecommons.org/ns#"
   xmlns:rdf="http://www.w3.org/1999/02/22-rdf-syntax-ns#"
   xmlns:svg="http://www.w3.org/2000/svg"
   xmlns="http://www.w3.org/2000/svg"
   xmlns:sodipodi="http://sodipodi.sourceforge.net/DTD/sodipodi-0.dtd"
   xmlns:inkscape="http://www.inkscape.org/namespaces/inkscape"
   width="113.77084mm"
   height="166.6875mm"
   viewBox="0 0 113.77084 166.6875"
   version="1.1"
   id="svg8"
   inkscape:version="0.92.1 r15371"
   sodipodi:docname="mean-fase.svg">
  <defs
     id="defs2" />
  <sodipodi:namedview
     id="base"
     pagecolor="#ffffff"
     bordercolor="#666666"
     borderopacity="1.0"
     inkscape:pageopacity="0.0"
     inkscape:pageshadow="2"
     inkscape:zoom="0.98994949"
     inkscape:cx="96.286882"
     inkscape:cy="235.89967"
     inkscape:document-units="mm"
     inkscape:current-layer="layer1"
     showgrid="false"
     fit-margin-top="0"
     fit-margin-left="0"
     fit-margin-right="0"
     fit-margin-bottom="0"
     inkscape:window-width="1920"
     inkscape:window-height="1017"
     inkscape:window-x="-8"
     inkscape:window-y="-8"
     inkscape:window-maximized="1" />
  <metadata
     id="metadata5">
    <rdf:RDF>
      <cc:Work
         rdf:about="">
        <dc:format>image/svg+xml</dc:format>
        <dc:type
           rdf:resource="http://purl.org/dc/dcmitype/StillImage" />
        <dc:title></dc:title>
      </cc:Work>
    </rdf:RDF>
  </metadata>
  <g
     inkscape:label="Layer 1"
     inkscape:groupmode="layer"
     id="layer1"
     transform="translate(-48.947914,-56.418163)">
    <g
       id="g1277">
      <path
         style="fill:#fdfdfd;stroke-width:0.26458335"
         d="m 119.47827,160.04033 c -0.18116,-0.21828 -0.26984,-0.39687 -0.19708,-0.39687 0.0728,0 0.28051,0.17859 0.46167,0.39687 0.18115,0.21828 0.26984,0.39688 0.19708,0.39688 -0.0728,0 -0.28051,-0.1786 -0.46167,-0.39688 z"
         id="path1287"
         inkscape:connector-curvature="0" />
      <path
         style="fill:#fcfcfc;stroke-width:0.26458335"
         d="m 129.53244,172.50814 c 0,-0.0549 0.20836,-0.2633 0.46302,-0.46302 0.41965,-0.3291 0.429,-0.31975 0.0999,0.0999 -0.34565,0.44073 -0.56292,0.58089 -0.56292,0.36312 z"
         id="path1285"
         inkscape:connector-curvature="0" />
      <path
         style="fill:#f3f3f3;stroke-width:0.26458335"
         d="m 73.726241,143.34953 c 0.01269,-0.30822 0.07539,-0.37092 0.159852,-0.15985 0.07643,0.191 0.06703,0.4192 -0.02089,0.50712 -0.08792,0.0879 -0.150453,-0.0684 -0.138965,-0.34727 z"
         id="path1283"
         inkscape:connector-curvature="0" />
      <path
         style="fill:#e6e6e6;stroke-width:0.26458335"
         d="m 121.61583,164.78078 c 0.0127,-0.30822 0.0754,-0.37092 0.15985,-0.15985 0.0764,0.191 0.067,0.4192 -0.0209,0.50712 -0.0879,0.0879 -0.15045,-0.0684 -0.13896,-0.34727 z"
         id="path1281"
         inkscape:connector-curvature="0" />
      <path
         style="fill:#e3e3e3;stroke-width:0.26458335"
         d="m 125.84172,169.70662 c -1.95714,-1.4544 -3.63788,-2.79555 -3.73498,-2.98033 -0.0971,-0.18478 -0.25354,-1.20695 -0.34763,-2.2715 -0.20761,-2.34875 -0.81343,-3.61253 -2.40211,-5.01094 -1.33893,-1.17857 -4.18301,-2.74936 -5.89245,-3.25441 l -1.11893,-0.33059 0.95101,-1.05265 c 1.37618,-1.52327 1.20118,-2.60791 -0.92954,-5.76138 -1.91096,-2.82821 -2.03088,-3.55916 -0.76017,-4.63323 1.90056,-1.60646 2.80961,-1.81367 7.6302,-1.73929 5.20993,0.0804 5.639,-0.0408 8.8685,-2.5049 2.82708,-2.15706 3.58361,-2.52216 5.22625,-2.52216 1.42899,0 4.13983,0.85753 4.64854,1.47048 0.21913,0.26403 0.054,1.82969 -0.64773,6.14157 -0.51801,3.18297 -1.34918,8.49031 -1.84704,11.7941 -0.49787,3.3038 -1.09854,6.75661 -1.33482,7.67292 -0.58039,2.25079 -1.76431,4.39936 -3.39555,6.16222 l -1.35512,1.46446 z m -45.268924,-0.32553 c -1.034275,-1.33826 -2.034715,-2.73725 -2.223201,-3.10886 -0.493464,-0.97289 -2.94499,-11.20297 -3.617457,-15.09544 -0.414046,-2.39664 -0.57943,-4.50935 -0.60064,-7.67292 l -0.02927,-4.36562 1.497695,-0.74912 c 1.763202,-0.88191 3.853387,-1.01784 5.269024,-0.34265 0.498409,0.23772 1.739635,1.10297 2.758281,1.92277 1.018646,0.8198 2.473664,1.779 3.23337,2.13155 1.31199,0.60884 1.604021,0.63755 5.820834,0.57239 4.876456,-0.0754 5.775638,0.12815 7.680698,1.7384 1.37493,1.16216 1.17238,1.99576 -1.355476,5.57842 -0.68276,0.96765 -1.068213,1.83799 -1.154996,2.60793 -0.11756,1.04299 -0.03665,1.25921 0.830278,2.2188 l 0.96053,1.06319 -0.731575,0.17793 c -1.480209,0.36 -5.006727,2.24862 -6.262122,3.35366 -1.470782,1.29464 -2.257526,2.79296 -2.275165,4.33298 -0.02058,1.79682 -0.446903,3.0882 -1.237756,3.74931 -1.124823,0.94029 -6.163609,4.32048 -6.440458,4.32048 -0.133149,0 -1.088316,-1.09494 -2.122594,-2.4332 z"
         id="path1279"
         inkscape:connector-curvature="0" />
    </g>
    <g
       id="g1309">
      <path
         style="fill:#f6f6f6;stroke-width:0.26458335"
         d="m 124.72033,121.36272 c 0.19099,-0.0764 0.4192,-0.067 0.50712,0.0209 0.0879,0.0879 -0.0684,0.15046 -0.34727,0.13897 -0.30822,-0.0127 -0.37092,-0.0754 -0.15985,-0.15985 z"
         id="path1319"
         inkscape:connector-curvature="0" />
      <path
         style="fill:#eeeeee;stroke-width:0.26458335"
         d="m 123.92658,121.36272 c 0.19099,-0.0764 0.4192,-0.067 0.50712,0.0209 0.0879,0.0879 -0.0683,0.15046 -0.34727,0.13897 -0.30822,-0.0127 -0.37092,-0.0754 -0.15985,-0.15985 z"
         id="path1317"
         inkscape:connector-curvature="0" />
      <path
         style="fill:#e7e7e7;stroke-width:0.26458335"
         d="m 108.16733,106.80899 c 0.25467,-0.0665 0.67138,-0.0665 0.92605,0 0.25466,0.0666 0.0463,0.121 -0.46303,0.121 -0.50932,0 -0.71768,-0.0545 -0.46302,-0.121 z"
         id="path1315"
         inkscape:connector-curvature="0" />
      <path
         style="fill:#dfdfdf;stroke-width:0.26458335"
         d="m 102.75991,124.53772 c 0.191,-0.0764 0.4192,-0.067 0.50712,0.0209 0.0879,0.0879 -0.0684,0.15046 -0.34726,0.13897 -0.30823,-0.0127 -0.37092,-0.0754 -0.15986,-0.15985 z m -17.484071,-3.69698 c 0.179131,-0.0725 0.536319,-0.0769 0.79375,-0.01 0.257432,0.0671 0.110869,0.12638 -0.325694,0.13178 -0.436562,0.005 -0.647187,-0.0495 -0.468056,-0.12197 z m 3.973786,-19.58085 c 0.181901,-0.0734 0.479557,-0.0734 0.661458,0 0.181901,0.0734 0.03307,0.13346 -0.330729,0.13346 -0.363802,0 -0.512631,-0.0601 -0.330729,-0.13346 z"
         id="path1313"
         inkscape:connector-curvature="0" />
      <path
         style="fill:#d7d7d7;stroke-width:0.26458335"
         d="m 133.9318,123.88217 c -2.53794,-2.13715 -3.98164,-2.62989 -7.68392,-2.62252 -3.17801,0.006 -6.47069,0.50274 -13.23129,1.99481 -5.82948,1.28657 -7.87715,1.5096 -10.94202,1.19179 -2.912505,-0.30201 -3.512403,-0.443 -7.905071,-1.8579 -3.735671,-1.20327 -7.859247,-1.94437 -9.748521,-1.75202 -0.727604,0.0741 -2.846726,0.62068 -4.70916,1.21466 -1.862434,0.59398 -3.570163,1.07997 -3.794953,1.07997 -0.357905,0 -0.386213,-0.46868 -0.227717,-3.77032 0.09955,-2.07367 0.341829,-4.57145 0.538404,-5.55063 0.426072,-2.12236 3.103515,-7.86415 4.305467,-9.2331 1.414759,-1.61132 5.737318,-3.14179 8.87348,-3.14179 2.364295,0 3.966228,0.48517 8.772814,2.65696 5.126377,2.31628 6.656507,2.72375 10.318747,2.74785 3.17668,0.0209 3.99823,-0.15299 8.29839,-1.75644 5.4376,-2.02759 8.25705,-2.27011 11.23643,-0.96653 4.03179,1.76405 5.14271,3.14267 5.8391,7.24619 1.10201,6.49369 2.03634,12.89508 1.96169,13.44024 -0.0777,0.56776 -0.20938,0.504 -1.90187,-0.92122 z"
         id="path1311"
         inkscape:connector-curvature="0" />
    </g>
    <g
       id="g1321">
      <path
         style="fill:#ededed;stroke-width:0.26458335"
         d="m 74.021516,137.55075 c 0.0054,-0.43656 0.06469,-0.58313 0.131774,-0.3257 0.06708,0.25744 0.06267,0.61462 -0.0098,0.79375 -0.07248,0.17913 -0.127363,-0.0315 -0.121971,-0.46805 z"
         id="path1327"
         inkscape:connector-curvature="0" />
      <path
         style="fill:#e3e3e3;stroke-width:0.26458335"
         d="m 73.726241,143.8787 c 0.01269,-0.30823 0.07539,-0.37092 0.159852,-0.15985 0.07643,0.19099 0.06703,0.4192 -0.02089,0.50712 -0.08792,0.0879 -0.150453,-0.0684 -0.138965,-0.34727 z"
         id="path1325"
         inkscape:connector-curvature="0" />
      <path
         style="fill:#dbdbdb;stroke-width:0.26458335"
         d="m 72.436239,156.14378 c -0.63659,-0.16495 -0.979029,-0.50993 -1.456071,-1.46685 -0.343052,-0.68815 -1.172181,-2.26321 -1.842509,-3.50014 -1.596832,-2.94657 -2.414428,-5.48156 -3.072037,-9.525 -0.550024,-3.38193 -1.09152,-9.49646 -1.09152,-12.32537 0,-1.70178 0.490248,-2.75588 1.28172,-2.75588 0.853787,0 4.3499,4.03946 6.546862,7.56434 l 1.245327,1.99805 -0.18033,4.28078 c -0.196032,4.65353 0.05397,7.90031 0.940817,12.21829 0.298877,1.45521 0.559891,2.8218 0.580031,3.03687 0.04595,0.49079 -1.766104,0.78229 -2.95229,0.47491 z m 63.550091,-0.66751 c 0.56471,-1.87363 2.0502,-12.18744 2.53701,-17.61457 0.31444,-3.50543 0.62738,-4.32324 3.05501,-7.98387 1.65538,-2.49616 3.09556,-3.97149 3.66394,-3.75339 0.2194,0.0842 0.58488,0.43691 0.81218,0.78382 0.37648,0.57458 0.36558,1.11187 -0.12232,6.03349 -1.27915,12.90294 -1.55254,14.08195 -4.47384,19.29337 -2.08425,3.71819 -2.06909,3.70417 -4.0062,3.70417 -1.40566,0 -1.58797,-0.0576 -1.46578,-0.46302 z"
         id="path1323"
         inkscape:connector-curvature="0" />
    </g>
    <g
       id="g1267">
      <path
         style="fill:#f5f5f5;stroke-width:0.26458335"
         d="m 73.747129,145.62054 c 0,-0.3638 0.06005,-0.51263 0.133452,-0.33073 0.0734,0.1819 0.0734,0.47956 0,0.66146 -0.0734,0.1819 -0.133452,0.0331 -0.133452,-0.33073 z"
         id="path1275"
         inkscape:connector-curvature="0" />
      <path
         style="fill:#dddddd;stroke-width:0.26458335"
         d="m 138.28458,138.58703 c 0.0127,-0.30822 0.0754,-0.37092 0.15985,-0.15985 0.0764,0.191 0.067,0.4192 -0.0209,0.50712 -0.0879,0.0879 -0.15045,-0.0684 -0.13896,-0.34727 z"
         id="path1273"
         inkscape:connector-curvature="0" />
      <path
         style="fill:#d1d1d1;stroke-width:0.26458335"
         d="m 134.845,132.7662 c 0.0127,-0.30823 0.0754,-0.37092 0.15985,-0.15985 0.0764,0.19099 0.067,0.4192 -0.0209,0.50712 -0.0879,0.0879 -0.15045,-0.0684 -0.13896,-0.34727 z m 0,-1.5875 c 0.0127,-0.30823 0.0754,-0.37092 0.15985,-0.15985 0.0764,0.19099 0.067,0.4192 -0.0209,0.50712 -0.0879,0.0879 -0.15045,-0.0684 -0.13896,-0.34727 z"
         id="path1271"
         inkscape:connector-curvature="0" />
      <path
         style="fill:#b8b8b8;stroke-width:0.26458335"
         d="m 127.64257,170.83401 -2.02216,-1.4551 0.80196,-2.15575 c 1.90875,-5.13086 5.80434,-16.99744 6.65748,-20.2797 1.39118,-5.35227 1.85328,-9.08667 1.84981,-14.94896 -0.004,-5.97411 -0.0513,-6.25239 -3.13175,-18.24695 -1.23199,-4.79707 -2.184,-8.77792 -2.11558,-8.84635 0.23782,-0.23781 2.18067,1.887 2.84306,3.10933 1.07343,1.98085 1.7001,4.36649 2.44286,9.29959 0.38343,2.54662 1.09559,6.71381 1.58257,9.26042 1.85764,9.71428 2.04246,12.9594 1.05483,18.52083 -0.21966,1.23693 -0.82038,5.16599 -1.33493,8.73125 -1.40442,9.73115 -2.31884,12.87326 -4.72956,16.25157 -1.74988,2.45223 -1.58996,2.42107 -3.89859,0.75982 z m -46.462764,-0.4181 c -1.698448,-2.24958 -2.616978,-4.08132 -3.75683,-7.49191 -1.31591,-3.93738 -2.195425,-7.78603 -2.925273,-12.80067 -0.546069,-3.75194 -0.549058,-3.96919 -0.143761,-10.45104 0.227645,-3.6407 0.535548,-8.64352 0.684228,-11.11738 0.14868,-2.47385 0.566082,-7.14603 0.927558,-10.38261 0.710261,-6.35953 1.375471,-9.09207 2.721883,-11.18093 0.873646,-1.35539 2.340753,-2.81935 2.582825,-2.57728 0.150789,0.15079 -1.818052,10.04141 -3.515132,17.65853 -0.697609,3.13112 -0.737016,3.65964 -0.73976,9.92188 -0.0024,5.22378 0.09868,7.19872 0.480209,9.39271 1.127053,6.48114 4.725408,18.66349 7.323675,24.79454 l 1.25921,2.97132 -1.72361,1.33061 c -0.947986,0.73184 -1.812668,1.33061 -1.92152,1.33061 -0.10885,0 -0.673016,-0.62927 -1.253702,-1.39838 z"
         id="path1269"
         inkscape:connector-curvature="0" />
    </g>
    <g
       id="g1289">
      <path
         style="fill:#eeeeee;stroke-width:0.26458335"
         d="m 104.08283,122.95022 c 0.19099,-0.0764 0.4192,-0.067 0.50712,0.0209 0.0879,0.0879 -0.0683,0.15046 -0.34727,0.13897 -0.30822,-0.0127 -0.37092,-0.0754 -0.15985,-0.15985 z"
         id="path1297"
         inkscape:connector-curvature="0" />
      <path
         style="fill:#dddddd;stroke-width:0.26458335"
         d="m 105.12463,122.95573 c 0.1819,-0.0734 0.47955,-0.0734 0.66145,0 0.1819,0.0734 0.0331,0.13345 -0.33073,0.13345 -0.3638,0 -0.51263,-0.0601 -0.33072,-0.13345 z m 1.31788,0.002 c 0.17913,-0.0725 0.53632,-0.0769 0.79375,-0.01 0.25743,0.0671 0.11087,0.12638 -0.3257,0.13177 -0.43656,0.005 -0.64718,-0.0495 -0.46805,-0.12197 z"
         id="path1295"
         inkscape:connector-curvature="0" />
      <path
         style="fill:#cecece;stroke-width:0.26458335"
         d="m 105.67033,136.70855 c 0.19099,-0.0764 0.4192,-0.067 0.50712,0.0209 0.0879,0.0879 -0.0683,0.15045 -0.34727,0.13896 -0.30822,-0.0127 -0.37092,-0.0754 -0.15985,-0.15985 z"
         id="path1293"
         inkscape:connector-curvature="0" />
      <path
         style="fill:#adadad;stroke-width:0.26458335"
         d="m 103.15736,135.96601 c -2.82301,-1.42904 -4.850979,-4.76744 -5.05225,-8.31688 -0.09971,-1.75842 -0.04313,-2.09371 0.460645,-2.72989 0.972376,-1.22793 2.947855,-1.6534 7.683345,-1.65477 4.65509,-0.001 5.70699,0.30082 6.80953,1.95613 1.74173,2.61498 -0.18122,7.75574 -3.84498,10.27907 -1.1749,0.80919 -1.67892,0.98545 -3.0461,1.06524 -1.36244,0.0795 -1.86921,-0.0213 -3.01019,-0.5989 z"
         id="path1291"
         inkscape:connector-curvature="0" />
    </g>
    <g
       id="g1299">
      <path
         style="fill:#f8f8f8;stroke-width:0.26458335"
         d="m 126.159,126.38815 c 0.25466,-0.0665 0.67138,-0.0665 0.92604,0 0.25466,0.0666 0.0463,0.12101 -0.46302,0.12101 -0.50932,0 -0.71768,-0.0544 -0.46302,-0.12101 z"
         id="path1307"
         inkscape:connector-curvature="0" />
      <path
         style="fill:#f2f2f2;stroke-width:0.26458335"
         d="m 85.826577,126.3898 c 0.190995,-0.0764 0.419198,-0.067 0.507119,0.0209 0.08792,0.0879 -0.06835,0.15045 -0.347265,0.13896 -0.308227,-0.0127 -0.37092,-0.0754 -0.159854,-0.15985 z"
         id="path1305"
         inkscape:connector-curvature="0" />
      <path
         style="fill:#e6e6e6;stroke-width:0.26458335"
         d="m 126.0298,120.82716 c 0.32911,-0.0633 0.80536,-0.0609 1.05833,0.005 0.25296,0.0662 -0.0163,0.118 -0.5984,0.11506 -0.58208,-0.003 -0.78905,-0.0571 -0.45993,-0.1204 z"
         id="path1303"
         inkscape:connector-curvature="0" />
      <path
         style="fill:#e0e0e0;stroke-width:0.26458335"
         d="m 75.220627,129.54733 c -1.275289,-1.40918 0.383699,-5.21546 3.074911,-7.0549 2.599772,-1.77694 5.517904,-2.12167 10.035485,-1.18553 5.831621,1.20843 11.490828,3.85265 12.524787,5.85211 0.38369,0.74198 0.37342,0.82496 -0.17432,1.408 -1.711576,1.82189 -3.308286,1.79047 -7.761806,-0.15276 -6.584191,-2.87292 -9.175248,-2.82848 -14.034945,0.2407 -2.163909,1.36663 -3.041497,1.58036 -3.664112,0.89238 z m 37.511363,0.0612 c -2.12304,-1.14768 -2.2425,-2.0211 -0.50712,-3.70769 1.56284,-1.51891 4.83436,-3.12185 8.17944,-4.00766 2.18804,-0.57941 3.24098,-0.7033 6.08542,-0.71601 3.85317,-0.0172 5.44245,0.40936 7.61532,2.04399 1.37622,1.03532 2.57114,3.26569 2.57114,4.79914 0,2.0732 -1.19695,2.27196 -3.72929,0.61928 -2.57041,-1.67751 -4.31822,-2.32023 -6.32488,-2.32584 -2.22614,-0.006 -3.1496,0.25812 -7.14375,2.04487 -3.6912,1.65123 -5.41361,1.97034 -6.74628,1.24992 z"
         id="path1301"
         inkscape:connector-curvature="0" />
    </g>
    <g
       id="g1329">
      <path
         style="fill:#fdfdfd;stroke-width:0.26458335"
         d="m 84.40853,174.65856 -1.045885,-1.12448 1.124479,1.04589 c 0.618464,0.57523 1.124479,1.08125 1.124479,1.12448 0,0.20017 -0.230412,-1.3e-4 -1.203073,-1.04589 z"
         id="path1361"
         inkscape:connector-curvature="0" />
      <path
         style="fill:#fcfcfc;stroke-width:0.26458335"
         d="m 132.99291,185.68287 c 0.0127,-0.30823 0.0754,-0.37092 0.15985,-0.15986 0.0764,0.191 0.067,0.4192 -0.0209,0.50712 -0.0879,0.0879 -0.15046,-0.0684 -0.13897,-0.34726 z"
         id="path1359"
         inkscape:connector-curvature="0" />
      <path
         style="fill:#fbfbfb;stroke-width:0.26458335"
         d="m 133.0236,184.64658 c 0.005,-0.43656 0.0647,-0.58312 0.13178,-0.32569 0.0671,0.25743 0.0627,0.61462 -0.01,0.79375 -0.0725,0.17913 -0.12736,-0.0315 -0.12197,-0.46806 z"
         id="path1357"
         inkscape:connector-curvature="0" />
      <path
         style="fill:#fafafa;stroke-width:0.26458335"
         d="m 101.437,186.7148 c 0.19099,-0.0764 0.41919,-0.067 0.50711,0.0209 0.0879,0.0879 -0.0683,0.15045 -0.34726,0.13896 -0.30823,-0.0127 -0.37092,-0.0754 -0.15985,-0.15985 z"
         id="path1355"
         inkscape:connector-curvature="0" />
      <path
         style="fill:#fafafa;stroke-width:0.26458335"
         d="m 133.0236,183.32366 c 0.005,-0.43656 0.0647,-0.58312 0.13178,-0.32569 0.0671,0.25743 0.0627,0.61462 -0.01,0.79375 -0.0725,0.17913 -0.12736,-0.0315 -0.12197,-0.46806 z"
         id="path1353"
         inkscape:connector-curvature="0" />
      <path
         style="fill:#f9f9f9;stroke-width:0.26458335"
         d="m 133.0138,181.86846 c 0,-0.36381 0.06,-0.51263 0.13345,-0.33073 0.0734,0.1819 0.0734,0.47955 0,0.66146 -0.0734,0.1819 -0.13345,0.0331 -0.13345,-0.33073 z m -0.0209,-7.29809 c 0.0127,-0.30823 0.0754,-0.37092 0.15985,-0.15986 0.0764,0.191 0.067,0.4192 -0.0209,0.50712 -0.0879,0.0879 -0.15046,-0.0684 -0.13897,-0.34726 z"
         id="path1351"
         inkscape:connector-curvature="0" />
      <path
         style="fill:#f8f8f8;stroke-width:0.26458335"
         d="m 133.0138,180.54554 c 0,-0.3638 0.06,-0.51263 0.13345,-0.33073 0.0734,0.1819 0.0734,0.47956 0,0.66146 -0.0734,0.1819 -0.13345,0.0331 -0.13345,-0.33073 z m -0.0209,-5.18142 c 0.0127,-0.30823 0.0754,-0.37092 0.15985,-0.15986 0.0764,0.191 0.067,0.4192 -0.0209,0.50712 -0.0879,0.0879 -0.15046,-0.0683 -0.13897,-0.34726 z"
         id="path1349"
         inkscape:connector-curvature="0" />
      <path
         style="fill:#f7f7f7;stroke-width:0.26458335"
         d="m 106.71213,209.47448 c 0.1819,-0.0734 0.47955,-0.0734 0.66145,0 0.1819,0.0734 0.0331,0.13345 -0.33073,0.13345 -0.3638,0 -0.51263,-0.0601 -0.33072,-0.13345 z m -6.33347,-22.75968 c 0.191,-0.0764 0.4192,-0.067 0.50712,0.0209 0.0879,0.0879 -0.0683,0.15045 -0.34727,0.13896 -0.30822,-0.0127 -0.37091,-0.0754 -0.15985,-0.15985 z"
         id="path1347"
         inkscape:connector-curvature="0" />
      <path
         style="fill:#f7f7f7;stroke-width:0.26458335"
         d="m 133.0236,179.09033 c 0.005,-0.43656 0.0647,-0.58312 0.13178,-0.32569 0.0671,0.25743 0.0627,0.61462 -0.01,0.79375 -0.0725,0.17913 -0.12736,-0.0315 -0.12197,-0.46806 z m 0.0151,-2.38125 c -0.003,-0.58208 0.0488,-0.85136 0.11506,-0.5984 0.0662,0.25297 0.0686,0.72922 0.005,1.05834 -0.0633,0.32911 -0.11747,0.12214 -0.12041,-0.45994 z"
         id="path1345"
         inkscape:connector-curvature="0" />
      <path
         style="fill:#f6f6f6;stroke-width:0.26458335"
         d="m 132.99291,178.00995 c 0.0127,-0.30823 0.0754,-0.37092 0.15985,-0.15985 0.0764,0.19099 0.067,0.4192 -0.0209,0.50712 -0.0879,0.0879 -0.15046,-0.0684 -0.13897,-0.34727 z"
         id="path1343"
         inkscape:connector-curvature="0" />
      <path
         style="fill:#f5f5f5;stroke-width:0.26458335"
         d="m 122.12411,180.51225 c 0,-0.0728 0.35718,-0.4745 0.79375,-0.89275 0.43656,-0.41826 0.79375,-0.70093 0.79375,-0.62817 0,0.0728 -0.35719,0.4745 -0.79375,0.89275 -0.43657,0.41825 -0.79375,0.70093 -0.79375,0.62817 z"
         id="path1341"
         inkscape:connector-curvature="0" />
      <path
         style="fill:#f4f4f4;stroke-width:0.26458335"
         d="m 102.20917,209.47616 c 0.17913,-0.0725 0.53632,-0.0769 0.79375,-0.01 0.25744,0.0671 0.11087,0.12638 -0.32569,0.13177 -0.43656,0.005 -0.64719,-0.0495 -0.46806,-0.12197 z m 3.44462,-0.002 c 0.1819,-0.0734 0.47956,-0.0734 0.66146,0 0.1819,0.0734 0.0331,0.13345 -0.33073,0.13345 -0.3638,0 -0.51263,-0.0601 -0.33073,-0.13345 z m 0,-22.50576 c 0.47294,-0.0587 1.24685,-0.0587 1.71979,0 0.47295,0.0587 0.086,0.10672 -0.85989,0.10672 -0.94589,0 -1.33284,-0.048 -0.8599,-0.10672 z m -6.068878,-0.25392 c 0.190994,-0.0764 0.419198,-0.067 0.507118,0.0209 0.0879,0.0879 -0.0683,0.15045 -0.347265,0.13896 -0.308226,-0.0127 -0.370919,-0.0754 -0.159853,-0.15985 z"
         id="path1339"
         inkscape:connector-curvature="0" />
      <path
         style="fill:#f2f2f2;stroke-width:0.26458335"
         d="m 132.72833,191.5037 c 0.0127,-0.30823 0.0754,-0.37092 0.15985,-0.15985 0.0764,0.19099 0.067,0.4192 -0.0209,0.50712 -0.0879,0.0879 -0.15045,-0.0684 -0.13896,-0.34727 z m -48.067906,-16.31597 -0.504029,-0.59532 0.595313,0.50403 c 0.327421,0.27722 0.595312,0.54511 0.595312,0.59532 0,0.21173 -0.212934,0.0554 -0.686596,-0.50403 z"
         id="path1337"
         inkscape:connector-curvature="0" />
      <path
         style="fill:#f1f1f1;stroke-width:0.26458335"
         d="m 103.80479,209.46258 c 0.32912,-0.0633 0.80537,-0.0609 1.05834,0.005 0.25296,0.0662 -0.0163,0.11801 -0.5984,0.11507 -0.58208,-0.003 -0.78905,-0.0571 -0.45994,-0.12041 z m -0.13537,-22.48484 c 0.25466,-0.0666 0.67138,-0.0666 0.92604,0 0.25466,0.0665 0.0463,0.121 -0.46302,0.121 -0.50933,0 -0.71768,-0.0545 -0.46302,-0.121 z m 4.88975,0.009 c 0.17913,-0.0725 0.53632,-0.0769 0.79375,-0.01 0.25744,0.0671 0.11087,0.12638 -0.32569,0.13177 -0.43656,0.005 -0.64719,-0.0495 -0.46806,-0.12197 z"
         id="path1335"
         inkscape:connector-curvature="0" />
      <path
         style="fill:#f0f0f0;stroke-width:0.26458335"
         d="m 132.72833,189.65162 c 0.0127,-0.30823 0.0754,-0.37092 0.15985,-0.15986 0.0764,0.191 0.067,0.4192 -0.0209,0.50712 -0.0879,0.0879 -0.15045,-0.0684 -0.13896,-0.34726 z"
         id="path1333"
         inkscape:connector-curvature="0" />
      <path
         style="fill:#ededed;stroke-width:0.26458335"
         d="m 97.914729,208.96505 c -4.614214,-0.71467 -10.066801,-2.29045 -14.702595,-4.24899 l -2.26718,-0.95785 -0.587685,-11.01102 c -0.68481,-12.83079 -1.147559,-23.61504 -1.018834,-23.74376 0.0496,-0.0496 0.607571,0.64346 1.239928,1.54014 1.708433,2.42256 4.58774,5.34354 10.133124,10.2798 7.15653,6.37042 6.223879,5.8824 11.804423,6.17679 4.74254,0.25018 9.88897,-0.0201 11.98177,-0.6293 0.5349,-0.1557 1.72552,-0.78014 2.64583,-1.38764 2.09397,-1.38222 9.92357,-9.17495 13.06795,-13.0064 l 2.36369,-2.88017 0.21026,1.82184 c 0.33033,2.86223 -0.052,27.96784 -0.42952,28.20379 -0.17045,0.10653 -2.92928,1.27986 -6.13074,2.60738 -3.20146,1.32753 -7.91628,3.41133 -10.47737,4.63069 -2.56109,1.21935 -5.35431,2.39875 -6.20715,2.62089 -1.96391,0.51153 -8.27546,0.50274 -11.625901,-0.0162 z"
         id="path1331"
         inkscape:connector-curvature="0" />
    </g>
    <g
       id="g1253">
      <path
         style="fill:#fdfdfd;stroke-width:0.26458335"
         d="m 122.65327,179.88408 c 0.79042,-0.80036 1.49667,-1.45521 1.56943,-1.45521 0.0728,0 -0.51442,0.65485 -1.30484,1.45521 -0.79043,0.80037 -1.49667,1.45521 -1.56943,1.45521 -0.0728,0 0.51442,-0.65484 1.30484,-1.45521 z"
         id="path1265"
         inkscape:connector-curvature="0" />
      <path
         style="fill:#f7f7f7;stroke-width:0.26458335"
         d="m 104.73139,187.23485 c 0.40218,-0.0608 0.99749,-0.0592 1.32292,0.004 0.32542,0.0628 -0.004,0.11256 -0.73125,0.11058 -0.7276,-0.002 -0.99385,-0.0534 -0.59167,-0.11419 z"
         id="path1263"
         inkscape:connector-curvature="0" />
      <path
         style="fill:#e3e3e3;stroke-width:0.26458335"
         d="m 122.12411,180.18106 c 0,-0.0549 0.20836,-0.2633 0.46302,-0.46302 0.41964,-0.32911 0.429,-0.31975 0.0999,0.0999 -0.34564,0.44073 -0.56291,0.58088 -0.56291,0.36312 z"
         id="path1261"
         inkscape:connector-curvature="0" />
      <path
         style="fill:#e1e1e1;stroke-width:0.26458335"
         d="m 106.46408,171.63355 c 0.19099,-0.0764 0.4192,-0.067 0.50712,0.0209 0.0879,0.0879 -0.0683,0.15045 -0.34727,0.13896 -0.30822,-0.0127 -0.37092,-0.0754 -0.15985,-0.15985 z"
         id="path1259"
         inkscape:connector-curvature="0" />
      <path
         style="fill:#dbdbdb;stroke-width:0.26458335"
         d="m 125.82827,176.21231 c 0,-0.0549 0.20836,-0.2633 0.46302,-0.46302 0.41965,-0.32911 0.42901,-0.31975 0.0999,0.0999 -0.34564,0.44073 -0.56292,0.58088 -0.56292,0.36312 z"
         id="path1257"
         inkscape:connector-curvature="0" />
      <path
         style="fill:#dadada;stroke-width:0.26458335"
         d="m 101.48985,186.89027 c -1.984948,-0.2787 -4.709347,-1.55106 -6.913795,-3.22889 -4.043508,-3.07757 -11.874868,-10.88783 -11.874868,-11.84288 0,-0.28954 3.62672,-2.85902 5.959507,-4.22222 1.436465,-0.83942 1.920986,-0.99546 2.746986,-0.88467 0.616268,0.0827 1.290077,-0.016 1.747827,-0.25579 0.723919,-0.3793 0.789472,-0.35442 2.324182,0.88226 5.688431,4.5838 12.641381,5.54281 18.574621,2.56197 0.58209,-0.29243 1.98919,-1.18036 3.12691,-1.97316 1.91361,-1.33349 2.11181,-1.4135 2.64583,-1.06801 0.33209,0.21484 0.97157,0.32598 1.50566,0.26168 0.8089,-0.0974 1.33681,0.16333 4.10104,2.02534 3.93366,2.64973 4.17628,2.83834 4.06018,3.1562 -0.19007,0.5204 -8.09351,8.65348 -9.95463,10.24387 -2.3731,2.0279 -5.04941,3.46185 -7.40129,3.96557 -2.24098,0.47997 -8.37365,0.69809 -10.64816,0.37873 z"
         id="path1255"
         inkscape:connector-curvature="0" />
    </g>
    <g
       id="g3135">
      <path
         style="fill:#fdfdfd;stroke-width:0.26458335"
         d="m 92.123359,158.98329 c 0,-0.0549 0.208359,-0.2633 0.463021,-0.46302 0.419645,-0.32911 0.429003,-0.31975 0.0999,0.0999 -0.345644,0.44073 -0.562917,0.58088 -0.562917,0.36312 z"
         id="path3149"
         inkscape:connector-curvature="0" />
      <path
         style="fill:#fbfbfb;stroke-width:0.26458335"
         d="m 109.27167,162.07745 c 0.19099,-0.0764 0.4192,-0.067 0.50712,0.0209 0.0879,0.0879 -0.0684,0.15046 -0.34727,0.13897 -0.30823,-0.0127 -0.37092,-0.0754 -0.15985,-0.15985 z m -9.01237,-6.0914 c 0.32742,-0.0631 0.8632,-0.0631 1.19062,0 0.32742,0.0631 0.0595,0.11466 -0.59531,0.11466 -0.65484,0 -0.922735,-0.0516 -0.59531,-0.11466 z"
         id="path3147"
         inkscape:connector-curvature="0" />
      <path
         style="fill:#fbfbfb;stroke-width:0.26458335"
         d="m 119.64003,159.21548 c -0.18116,-0.21828 -0.26985,-0.39688 -0.19709,-0.39688 0.0728,0 0.28051,0.1786 0.46167,0.39688 0.18116,0.21828 0.26985,0.39687 0.19709,0.39687 -0.0728,0 -0.28052,-0.17859 -0.46167,-0.39687 z"
         id="path3145"
         inkscape:connector-curvature="0" />
      <path
         style="fill:#f9f9f9;stroke-width:0.26458335"
         d="m 108.47792,162.07745 c 0.19099,-0.0764 0.4192,-0.067 0.50712,0.0209 0.0879,0.0879 -0.0684,0.15046 -0.34727,0.13897 -0.30823,-0.0127 -0.37092,-0.0754 -0.15985,-0.15985 z m -5.04362,-0.25907 c 0.1819,-0.0734 0.47955,-0.0734 0.66146,0 0.1819,0.0734 0.0331,0.13345 -0.33073,0.13345 -0.36381,0 -0.51263,-0.0601 -0.33073,-0.13345 z m -0.65782,-5.83547 c 0.40218,-0.0608 0.99749,-0.0592 1.32291,0.004 0.32543,0.0628 -0.004,0.11256 -0.73124,0.11057 -0.7276,-0.002 -0.99386,-0.0534 -0.59167,-0.11418 z"
         id="path3143"
         inkscape:connector-curvature="0" />
      <path
         style="fill:#f7f7f7;stroke-width:0.26458335"
         d="m 107.68417,162.07745 c 0.19099,-0.0764 0.41919,-0.067 0.50712,0.0209 0.0879,0.0879 -0.0684,0.15046 -0.34727,0.13897 -0.30823,-0.0127 -0.37092,-0.0754 -0.15985,-0.15985 z m -2.39779,-6.09608 c 0.47294,-0.0587 1.24685,-0.0587 1.71979,0 0.47294,0.0587 0.086,0.10672 -0.85989,0.10672 -0.94589,0 -1.33284,-0.048 -0.8599,-0.10672 z m 6.87917,0.0162 c 0.1819,-0.0734 0.47955,-0.0734 0.66146,0 0.1819,0.0734 0.0331,0.13345 -0.33073,0.13345 -0.36381,0 -0.51263,-0.06 -0.33073,-0.13345 z"
         id="path3141"
         inkscape:connector-curvature="0" />
      <path
         style="fill:#f5f5f5;stroke-width:0.26458335"
         d="m 106.6093,162.08296 c 0.1819,-0.0734 0.47955,-0.0734 0.66146,0 0.1819,0.0734 0.0331,0.13345 -0.33073,0.13345 -0.36381,0 -0.51263,-0.06 -0.33073,-0.13345 z m 4.51445,-0.27009 c 0.191,-0.0764 0.4192,-0.067 0.50712,0.0209 0.0879,0.0879 -0.0683,0.15045 -0.34727,0.13897 -0.30822,-0.0127 -0.37092,-0.0754 -0.15985,-0.15986 z m -2.26549,-5.83284 c 0.5457,-0.0571 1.43867,-0.0571 1.98437,0 0.5457,0.0571 0.0992,0.10379 -0.99219,0.10379 -1.0914,0 -1.53789,-0.0467 -0.99218,-0.10379 z"
         id="path3139"
         inkscape:connector-curvature="0" />
      <path
         style="fill:#f3f3f3;stroke-width:0.26458335"
         d="m 91.065025,166.22813 c -0.632624,-0.15917 -0.659921,-0.24866 -0.626207,-2.05312 0.04383,-2.3462 0.729943,-3.87862 2.391349,-5.34105 2.785573,-2.45196 4.209259,-2.71392 14.182753,-2.6097 l 7.73232,0.0808 1.72801,0.84577 c 3.41333,1.67064 5.65645,4.74933 5.4961,7.54345 -0.0715,1.24588 -0.14981,1.41019 -0.70988,1.4894 -0.81437,0.11517 -2.74704,-0.6253 -3.33883,-1.27921 -0.2537,-0.28033 -0.87921,-0.64763 -1.39003,-0.81621 -0.51082,-0.16859 -1.61361,-0.71448 -2.45064,-1.2131 l -1.52186,-0.90657 -4.85957,-0.085 -4.85956,-0.085 -2.967451,1.15585 c -1.632101,0.63572 -3.163962,1.15585 -3.404135,1.15585 -0.240175,0 -1.022895,0.43032 -1.739379,0.95627 -1.414592,1.0384 -2.625876,1.42252 -3.66299,1.16159 z"
         id="path3137"
         inkscape:connector-curvature="0" />
    </g>
    <path
       style="fill:#000000;stroke-width:0.26458335"
       d="m 80.656659,200.98204 c -0.11023,-1.30968 -0.438073,-6.31031 -0.728541,-11.1125 -0.290464,-4.80218 -0.643286,-10.27906 -0.78405,-12.17083 -0.140761,-1.89177 -0.259403,-4.96018 -0.263647,-6.81869 -0.0072,-3.13971 -0.05385,-3.44901 -0.658886,-4.36563 -0.563891,-0.85429 -1.604508,-4.5815 -2.704963,-9.68847 l -0.221739,-1.02903 -1.693438,-0.0293 -1.693438,-0.0293 -1.032542,-1.68655 c -1.638642,-2.67655 -3.297183,-6.08267 -4.01714,-8.24992 -1.128897,-3.39827 -2.270579,-12.39375 -2.27243,-17.90482 -5.82e-4,-1.7433 0.05723,-1.95005 0.654784,-2.34158 0.360484,-0.2362 1.03943,-0.44731 1.508767,-0.46912 0.754782,-0.0351 0.999947,0.15308 2.122698,1.62923 0.698148,0.9179 1.264056,1.92994 1.257575,2.24896 -0.01337,0.65827 0.179506,0.85253 -1.657044,-1.6689 -0.929762,-1.27649 -1.970893,-1.66079 -2.749269,-1.01479 -0.361223,0.29979 -0.397536,0.95171 -0.27003,4.84776 0.170832,5.21995 0.827897,11.33037 1.422933,13.23265 0.576764,1.84387 3.003391,6.81595 4.293578,8.7974 l 1.076743,1.65364 h 1.328686 c 1.598389,0 1.561538,0.25124 0.640352,-4.36562 -0.641794,-3.21659 -0.676726,-3.77408 -0.538812,-8.59896 0.132851,-4.64774 0.961775,-15.50584 1.379922,-18.07564 0.39309,-2.41581 0.382184,-0.26705 -0.03286,6.47414 -0.300947,4.88799 -0.399051,9.03876 -0.302343,12.79212 0.142387,5.52622 0.150387,5.58691 1.480148,11.22687 1.9373,8.21675 2.650958,10.3335 4.4478,13.19241 2.401781,3.82143 6.022022,7.61687 13.0399,13.67095 3.913346,3.37591 4.738775,3.86007 7.100527,4.16486 2.74505,0.35426 11.42581,0.0955 13.2184,-0.39396 2.69809,-0.73676 6.37459,-3.88242 12.72625,-10.88873 6.57312,-7.2506 7.17929,-8.54491 8.36585,-17.8632 0.4627,-3.63373 0.94439,-6.28917 2.37798,-13.1092 1.08877,-5.1796 1.12903,-4.29536 -0.67542,-14.83264 -0.57466,-3.35576 -1.04122,-6.39186 -1.03679,-6.74687 0.0249,-1.99667 1.3955,3.2712 2.54016,9.76291 1.0473,5.93964 0.94776,7.7116 -1.08528,19.31947 -0.36593,2.08928 -0.59963,3.90498 -0.51934,4.03489 0.0803,0.12991 0.66415,0.2362 1.29747,0.2362 0.95357,0 1.26582,-0.13587 1.81665,-0.7905 0.96077,-1.14181 3.14174,-5.30871 4.22547,-8.07304 1.18418,-3.02058 1.84535,-8.27626 1.87956,-14.94071 l 0.0237,-4.62195 -0.74157,-0.26268 c -0.98962,-0.35054 -1.43885,-0.0415 -2.50574,1.72368 -0.47632,0.7881 -0.98234,1.4726 -1.12447,1.5211 -0.55373,0.18898 -0.20459,-0.70127 1.03182,-2.63098 1.47216,-2.29767 2.28752,-2.74723 3.43238,-1.89247 1.23027,0.91853 1.2408,1.01681 0.74491,6.94938 -0.56169,6.71976 -1.27279,11.30511 -2.19511,14.15463 -0.72868,2.25126 -3.3925,7.60766 -4.52308,9.09501 -0.65553,0.86239 -0.72717,0.88792 -2.09506,0.74674 -1.65238,-0.17054 -1.44125,-0.61363 -2.05531,4.31346 -0.45953,3.68723 -0.99942,6.02309 -1.71227,7.40833 -0.43018,0.83595 -0.49663,2.1617 -0.68291,13.62604 -0.28349,17.44742 -0.56281,19.85721 -0.65936,5.68855 -0.0431,-6.33016 -0.15258,-12.75954 -0.2432,-14.2875 l -0.16479,-2.77813 -5.55625,5.74862 c -8.46454,8.7576 -10.06249,9.99063 -13.83943,10.67893 -2.93248,0.53441 -9.53659,0.75913 -12.27731,0.41776 -2.736312,-0.34083 -3.724004,-0.8055 -6.085752,-2.86311 -0.976474,-0.85073 -3.000536,-2.61257 -4.497917,-3.91521 -3.436482,-2.98954 -6.545003,-6.13805 -8.680744,-8.79242 l -1.664205,-2.06832 0.178167,2.64583 c 0.09799,1.45521 0.359212,4.96756 0.580488,7.80521 0.283475,3.63527 0.379707,7.93403 0.325763,14.55209 -0.05441,6.67544 -0.13454,8.70382 -0.276979,7.01145 z m 16.887752,-3.35187 c -0.242551,-1.06689 -1.137094,-3.84479 -1.987873,-6.17313 -2.146908,-5.87546 -1.679189,-5.99849 0.948103,-0.24939 1.753894,3.83791 1.987992,4.58047 2.003952,6.35652 0.02061,2.29277 -0.450599,2.32502 -0.964182,0.066 z m 20.486629,-0.30266 c 0,-0.91948 0.95071,-3.91056 2.35933,-7.42278 0.89105,-2.22176 1.84306,-4.15167 1.86231,-3.77531 0.0292,0.57036 -2.96805,10.94917 -3.31499,11.47919 -0.55402,0.84636 -0.90665,0.73703 -0.90665,-0.2811 z m -12.30313,-24.51232 -1.05833,-0.17822 0.74483,-0.3134 c 0.40965,-0.17237 1.12403,-0.31274 1.5875,-0.31192 1.11834,0.002 2.82705,0.48833 2.82705,0.8047 0,0.27845 -2.44473,0.27776 -4.10105,-0.001 z m -2.51354,-2.29685 c -2.03326,-0.26154 -6.614582,-2.16297 -6.614582,-2.74531 0,-0.45584 1.211895,-0.28214 2.680007,0.38411 2.374915,1.07779 5.402065,1.54687 9.191415,1.42429 2.91933,-0.0944 3.53409,-0.19661 4.85963,-0.80767 0.83463,-0.38475 1.93474,-1.01778 2.44469,-1.40675 0.92088,-0.70238 1.84258,-0.73011 1.58066,-0.0476 -0.24722,0.64424 -3.07718,2.15078 -4.91851,2.61839 -1.79068,0.45475 -7.43782,0.81017 -9.22331,0.58049 z m -0.79375,-2.98445 c 0,-0.78859 0.28521,-1.34455 0.68977,-1.34455 0.46498,0 0.46133,0.11147 -0.0351,1.07147 -0.46879,0.90652 -0.65467,0.98406 -0.65467,0.27308 z m 8.95802,-0.61134 c -0.79713,-0.84951 -0.87037,-1.01319 -0.42341,-0.94634 0.58212,0.0871 1.64445,1.32311 1.4846,1.72736 -0.0535,0.13539 -0.53107,-0.21607 -1.06119,-0.78102 z m -6.57677,-1.37302 c -0.79358,-0.21795 -2.38765,-0.28638 -4.78015,-0.20521 -2.536856,0.0861 -3.767264,0.0267 -4.195592,-0.20256 -0.424252,-0.22706 -0.522516,-0.40792 -0.327557,-0.60287 0.194961,-0.19496 0.654867,-0.17314 1.533054,0.0727 1.106493,0.30979 2.322049,0.34044 6.497455,0.16379 0.95918,-0.0406 0.96781,-0.0505 0.49608,-0.57046 -0.26404,-0.29104 -0.62945,-0.82682 -0.81202,-1.19062 l -0.33194,-0.66146 0.7619,0.68703 c 1.39875,1.2613 2.04165,1.56193 3.34022,1.56193 1.1204,0 1.40948,-0.12861 2.45467,-1.09203 1.39304,-1.28406 1.58469,-0.93972 0.28046,0.5039 l -0.90425,1.0009 2.5579,-0.0385 c 2.64826,-0.0398 6.1816,-0.31453 6.98967,-0.5434 0.58236,-0.16494 0.63341,0.57627 0.055,0.79824 -0.22443,0.0861 -1.68294,0.21619 -3.24115,0.28904 -7.29937,0.34128 -9.21866,0.34675 -10.37373,0.0295 z m -11.32851,-1.40237 c 0.05265,-0.45235 0.348157,-0.86702 0.796322,-1.11743 0.981091,-0.5482 1.181031,-0.21329 0.361767,0.60597 -0.372623,0.37263 -0.677495,0.80197 -0.677495,0.95411 0,0.15214 -0.126971,0.27661 -0.282157,0.27661 -0.155186,0 -0.244483,-0.32367 -0.198437,-0.71926 z m 26.00808,0.17494 c -0.095,-0.29938 -0.4674,-0.65635 -0.8275,-0.79326 -0.66933,-0.25448 -0.63285,-0.77909 0.0542,-0.77909 0.55656,0 1.4396,0.97377 1.4396,1.5875 0,0.69163 -0.44516,0.6815 -0.66627,-0.0152 z m 9.13493,0.002 c 0.003,-0.86883 0.515,-3.98637 0.70585,-4.29516 0.22725,-0.3677 0.6064,0.37091 0.61102,1.19029 0.004,0.79863 -0.70863,3.1105 -1.08017,3.50174 -0.1453,0.15301 -0.23791,-0.002 -0.2367,-0.39687 z m -14.78024,-1.32883 -2.66184,-1.34205 -1.96992,0.331 c -1.59988,0.26883 -2.31677,0.26556 -3.81638,-0.0174 -2.14917,-0.40552 -2.5817,-0.32431 -5.67971,1.06645 -2.259537,1.01442 -3.637659,1.30798 -3.637659,0.77495 0,-0.14553 0.185275,-0.26459 0.411721,-0.26459 0.226446,0 1.684962,-0.55467 3.241146,-1.2326 2.124762,-0.92561 3.125952,-1.22279 4.020052,-1.19322 0.65484,0.0217 2.79957,0.0703 4.76606,0.10812 l 3.57543,0.0687 2.59971,1.25677 c 1.42984,0.69123 2.76769,1.25678 2.97301,1.25678 0.20531,0 0.37329,0.11906 0.37329,0.26458 0,0.61494 -1.70858,0.17609 -4.19491,-1.07747 z m -26.948512,-3.9023 c -0.622892,-1.33696 -1.30397,-2.24351 -2.587752,-3.44443 -2.073902,-1.94003 -1.929471,-2.1371 0.26851,-0.36637 1.787697,1.4402 2.649606,2.59476 3.051633,4.08778 0.47099,1.74912 0.156083,1.63003 -0.732391,-0.27698 z m 19.269922,1.18285 c -0.26878,-0.32385 -0.18184,-0.3781 0.5517,-0.34424 0.85628,0.0395 0.87209,0.0195 0.95083,-1.20265 0.0806,-1.25024 -0.35897,-2.05664 -1.30377,-2.39202 -0.20009,-0.071 -0.26776,-0.23157 -0.15036,-0.35676 0.33254,-0.35463 1.5984,0.48756 2.00533,1.33416 0.27023,0.56221 0.30502,1.08167 0.13229,1.97476 -0.21275,1.09997 -0.30977,1.21923 -1.05068,1.29153 -0.47712,0.0466 -0.94885,-0.0801 -1.13534,-0.30478 z m -6.288296,-5.99036 c -1.437518,-0.58011 -1.835814,-2.57 -0.837676,-4.18503 0.586198,-0.94848 1.016312,-0.7906 0.495795,0.18199 -0.154959,0.28954 -0.281742,1.07407 -0.281742,1.74339 0,1.11033 0.08113,1.2648 0.926039,1.76332 0.50933,0.3005 0.92604,0.59414 0.92604,0.65253 0,0.16989 -0.6138,0.0918 -1.228456,-0.1562 z m 3.995826,-0.28 c -0.61075,-0.40544 -1.03537,-0.4829 -1.93026,-0.35213 -1.08542,0.15862 -1.14247,0.13488 -1.05833,-0.44039 0.20425,-1.39647 2.35783,-1.18749 3.487,0.33836 0.68915,0.93125 0.49154,1.11132 -0.49841,0.45416 z m 8.67586,-0.30373 c 1.10044,-1.03832 1.23567,-1.76319 0.60882,-3.26345 -0.44267,-1.05944 -0.14259,-1.22357 0.48523,-0.26539 0.57517,0.87781 0.55535,2.84207 -0.0357,3.54058 -0.25466,0.30096 -0.82021,0.63208 -1.25677,0.73582 l -0.79375,0.18862 z m -4.24095,-0.0138 c 0.65124,-1.00009 2.15563,-1.68227 3.03099,-1.37442 1.16272,0.40891 0.95936,1.04168 -0.33873,1.05398 -0.59711,0.006 -1.3966,0.21402 -1.77662,0.46302 -0.99128,0.64951 -1.3909,0.58728 -0.91564,-0.14258 z m 0.47213,-2.05052 c -0.0196,-0.0728 -0.0805,-1.26539 -0.13518,-2.65029 -0.0547,-1.38491 -0.2247,-3.28991 -0.37776,-4.23334 -0.31608,-1.94817 -0.33261,-11.94869 -0.0177,-10.71116 0.11108,0.43656 0.21838,2.10344 0.23844,3.70417 0.02,1.60073 0.21154,4.45823 0.42553,6.35 0.43027,3.80377 0.4763,6.33736 0.12978,7.14375 -0.12507,0.29104 -0.24346,0.46963 -0.2631,0.39687 z m -36.601869,-3.4893 c -0.212404,-0.33646 -0.46441,-0.9094 -0.560015,-1.2732 l -0.173826,-0.66146 0.543152,0.62463 c 0.702383,0.80774 0.684874,0.63434 -0.137073,-1.35749 -0.445929,-1.08062 -0.791614,-2.65163 -1.003622,-4.5611 l -0.323398,-2.91271 -2.173176,-3.61164 c -1.195246,-1.9864 -2.241264,-4.00943 -2.324485,-4.49562 -0.142214,-0.83084 -0.105897,-0.80445 0.604122,0.43893 0.415487,0.72761 1.599322,2.69214 2.630744,4.36563 l 1.875312,3.04271 0.274117,2.77812 c 0.199608,2.02299 0.500614,3.34636 1.107397,4.86866 0.836748,2.09923 0.944199,3.07098 0.360805,3.26298 -0.172626,0.0568 -0.48765,-0.17198 -0.700054,-0.50844 z m 66.308779,0.1283 c -0.0958,-0.24965 0.21099,-1.53692 0.68793,-2.88658 0.58405,-1.65276 0.94056,-3.28342 1.10882,-5.07168 l 0.248,-2.63569 2.15438,-3.53971 c 1.18491,-1.94684 2.31064,-3.8969 2.50161,-4.33346 0.31149,-0.71204 0.3483,-0.73112 0.35759,-0.1853 0.0125,0.73538 -0.32304,1.41193 -2.65088,5.34467 l -1.80101,3.04271 -0.25499,2.78203 c -0.17564,1.91631 -0.46922,3.30926 -0.94344,4.47631 -0.37864,0.93185 -0.63191,1.75081 -0.56282,1.8199 0.0691,0.0691 0.2007,-0.07 0.29245,-0.30912 0.31586,-0.82312 0.61147,-0.43359 0.32264,0.42515 -0.50387,1.49816 -1.12226,1.95161 -1.46028,1.07077 z M 69.82833,146.9409 c -1.551563,-1.66826 -1.672462,-2.06425 -1.654677,-5.41977 0.01417,-2.674 0.08673,-3.19338 0.500584,-3.58319 0.460472,-0.43373 0.473887,-0.43016 0.275866,0.0733 -0.37606,0.95607 -0.474463,5.31101 -0.14272,6.31621 0.172681,0.52322 0.793624,1.36189 1.379874,1.8637 0.58625,0.50181 0.98734,1.0395 0.891313,1.19488 -0.267974,0.43359 -0.514708,0.34575 -1.25024,-0.4451 z m 70.79272,0.41145 c -0.0996,-0.16117 0.1282,-0.51835 0.50625,-0.79374 0.37804,-0.27538 0.96065,-0.94199 1.29467,-1.48134 0.52593,-0.84922 0.6052,-1.3175 0.5915,-3.49418 -0.009,-1.49074 -0.15169,-2.76501 -0.34973,-3.13152 -0.38736,-0.71689 -0.30464,-0.90806 0.2458,-0.56803 0.30973,0.19133 0.38921,0.9313 0.38921,3.62363 v 3.38321 l -0.89375,1.24145 c -0.95418,1.3254 -1.49181,1.69323 -1.78395,1.22052 z m -52.487929,-9.30467 c -0.654844,-0.17858 -1.42875,-0.47572 -1.719792,-0.6603 -0.484794,-0.30747 -0.466672,-0.32232 0.21609,-0.17715 1.494642,0.31781 4.585206,0.65265 6.13391,0.66457 1.12486,0.009 1.47184,0.087 1.190625,0.2687 -0.554466,0.35832 -4.386852,0.29523 -5.820833,-0.0958 z m 31.948439,0.19568 c -1.12387,-0.33655 -0.23362,-0.56298 2.77813,-0.70658 1.78263,-0.085 3.65786,-0.27708 4.16718,-0.42684 0.84501,-0.24847 0.88081,-0.2381 0.4091,0.1185 -0.28432,0.21494 -0.93916,0.51309 -1.45521,0.66256 -1.07768,0.31214 -5.2094,0.55892 -5.8992,0.35236 z M 88.662287,136.2655 c -0.654843,-0.12788 -1.964531,-0.62085 -2.910417,-1.09549 -0.945885,-0.47463 -1.898385,-0.86312 -2.116666,-0.86332 -0.218282,-1.9e-4 -0.396875,-0.1658 -0.396875,-0.36803 0,-0.20223 -0.20836,-0.46997 -0.463021,-0.59497 -0.254662,-0.125 -0.664295,-0.32507 -0.910294,-0.44461 -0.246002,-0.11954 -0.499009,-0.38743 -0.56224,-0.59531 -0.09258,-0.30438 -0.04671,-0.31358 0.235607,-0.0472 0.539826,0.50927 1.220081,0.40752 4.058359,-0.60701 1.766898,-0.63157 3.317603,-0.99115 4.7512,-1.1017 2.458733,-0.1896 2.088317,-0.54766 -0.627319,-0.60639 -1.218327,-0.0264 -1.565495,-0.1035 -1.190625,-0.26458 1.772846,-0.76182 8.173228,0.44138 6.81459,1.28106 -0.44377,0.27427 1.876814,2.20737 3.067611,2.55539 0.979652,0.28632 1.213678,0.73876 0.457457,0.88439 -1.04362,0.20098 -2.360195,-0.29529 -3.451128,-1.30088 l -1.133758,-1.04506 0.02455,1.12765 c 0.01349,0.62021 -0.07367,1.33601 -0.193714,1.59067 -0.189889,0.40284 -0.06841,0.4644 0.934524,0.47362 l 1.152787,0.0106 -0.724604,0.39316 c -0.675706,0.36663 -3.902482,0.91838 -5.09623,0.87141 -0.291041,-0.0114 -1.064948,-0.12545 -1.719791,-0.25334 z m -0.661458,-2.75221 c 0,-0.65484 -0.06809,-1.19062 -0.151305,-1.19062 -0.608121,0 -2.594684,0.89628 -2.462088,1.11082 0.145613,0.23561 2.134608,1.2494 2.481101,1.26462 0.07276,0.003 0.132292,-0.52997 0.132292,-1.18482 z M 120.28,136.10835 c -1.86945,-0.42988 -2.51354,-0.66544 -2.51354,-0.91928 0,-0.18859 0.36994,-0.22904 1.07034,-0.11704 1.03473,0.16546 1.06014,0.15209 0.76371,-0.40181 -0.17077,-0.31909 -0.24781,-1.09488 -0.17387,-1.75091 l 0.13278,-1.17796 -1.14915,1.1278 c -1.01492,0.99607 -1.3205,1.14201 -2.61627,1.24946 -1.00332,0.0832 -1.46713,0.025 -1.46713,-0.18398 0,-0.31893 0.17408,-0.40231 1.4047,-0.67279 0.40879,-0.0898 1.26511,-0.64439 1.90295,-1.23233 0.63784,-0.58794 1.77922,-1.30438 2.53641,-1.59209 1.70573,-0.64813 4.30408,-0.90564 5.53303,-0.54836 0.91716,0.26664 0.91209,0.26966 -0.52917,0.31512 l -1.45521,0.0459 1.5875,0.38049 c 1.74952,0.41933 5.15421,1.63861 5.53181,1.98105 0.14216,0.12893 0.11611,0.36722 -0.0639,0.58407 -0.1672,0.20145 -0.22565,0.44462 -0.1299,0.54038 0.0958,0.0958 0.0282,0.17409 -0.1502,0.17409 -0.17836,0 -0.25155,0.1177 -0.16265,0.26155 0.0911,0.14745 -0.01,0.19578 -0.23128,0.11077 -0.21611,-0.0829 -0.9069,0.14639 -1.53509,0.50959 -0.6282,0.3632 -1.78886,0.84913 -2.57926,1.07985 -1.33236,0.38892 -4.47694,0.5192 -5.70666,0.23642 z m 7.48291,-2.36001 c 0.76924,-0.49765 0.59958,-0.75228 -0.82454,-1.23753 l -1.14622,-0.39056 v 1.17716 c 0,1.13268 0.0258,1.17082 0.68351,1.00933 0.37593,-0.0923 0.95519,-0.34359 1.28725,-0.5584 z m -22.69646,-3.25992 c 0,-0.36693 1.0055,-0.61763 1.73889,-0.43356 1.0598,0.26599 0.7259,0.68031 -0.54826,0.68031 -0.65484,0 -1.19063,-0.11104 -1.19063,-0.24675 z m 8.65014,-2.70359 c -1.08324,-0.40661 -0.89716,-1.46806 0.37242,-2.12435 1.58889,-0.82136 12.20354,-3.39198 14.00622,-3.39198 2.76566,0 4.26966,1.00593 5.45058,3.64557 0.88784,1.98454 0.77991,2.16138 -0.45969,0.75313 -0.59647,-0.67763 -1.61363,-1.54215 -2.26035,-1.92116 -1.64161,-0.96204 -3.13703,-0.78871 -6.80723,0.78901 -4.37287,1.87977 -8.74436,2.83443 -10.30195,2.24978 z m -35.373053,-0.49642 c 0,-0.73175 1.44726,-3.23565 2.202907,-3.81125 1.179436,-0.89841 3.062328,-1.31434 5.024618,-1.10994 2.332797,0.24299 11.922671,2.22104 13.151311,2.71265 1.053066,0.42135 1.583777,1.26102 1.101707,1.74309 -0.929201,0.9292 -5.749132,0.26513 -10.997232,-1.51517 -4.274802,-1.45012 -5.529919,-1.51937 -7.461198,-0.41163 -0.738931,0.42383 -1.721197,1.20076 -2.182813,1.72651 -0.461615,0.52575 -0.8393,0.82533 -0.8393,0.66574 z m -6.977955,-4.02772 c -1.848839,-2.89871 -2.860321,-5.60087 -3.194021,-8.53281 -0.483439,-4.24756 1.82527,-12.4174 5.607632,-19.843753 0.985655,-1.935252 1.663285,-2.827247 3.617977,-4.7625 3.08375,-3.053085 5.046033,-4.11789 9.809909,-5.323221 0.291042,-0.07364 -0.522386,0.405316 -1.807615,1.06434 -4.29405,2.201846 -7.803203,5.280461 -9.830634,8.624506 -1.31978,2.176849 -4.874298,10.861278 -5.319573,12.996828 -0.46526,2.2314 -0.543078,9.04637 -0.124356,10.89066 0.158037,0.69609 0.756433,2.39273 1.329768,3.77032 0.573334,1.37758 0.987178,2.50469 0.919652,2.50469 -0.06753,0 -0.521458,-0.62508 -1.008739,-1.38906 z m 69.799308,-0.7276 c 0.065,-0.36381 0.3283,-1.79256 0.58512,-3.175 0.64264,-3.45934 0.66442,-13.27995 0.0356,-16.04179 -1.51995,-6.675575 -6.94105,-13.916194 -14.75872,-19.712291 -5.02988,-3.729202 -7.62541,-5.050955 -12.48115,-6.355931 -1.81504,-0.487792 -2.87916,-0.590442 -6.03968,-0.582619 -6.34214,0.0157 -10.869289,1.250606 -15.320542,4.179111 -2.113126,1.390237 -2.446242,1.275011 -0.774615,-0.267943 6.418525,-5.924458 16.020057,-7.764737 24.901227,-4.772695 10.43964,3.517089 21.67048,14.354594 25.31594,24.429318 1.87653,5.18602 2.08286,11.17906 0.58556,17.00817 -0.69423,2.70272 -2.35048,6.98066 -2.04872,5.29167 z m -6.40528,-6.24845 c -1.45218,-6.46056 -2.77207,-9.43386 -4.85886,-10.94552 -1.78647,-1.29411 -3.58054,-1.68928 -6.87934,-1.51525 -2.41971,0.12765 -3.34235,0.32258 -6.42224,1.35684 -5.15338,1.73057 -8.67337,2.05399 -12.85563,1.18119 -0.65485,-0.13666 -2.79797,-1.01781 -4.762502,-1.95812 -4.352531,-2.0833 -6.964635,-2.81531 -10.210065,-2.86126 -2.276557,-0.0322 -2.51151,0.0187 -4.403924,0.95395 -2.313236,1.14327 -4.300051,2.82963 -5.455888,4.63085 -1.421736,2.21559 -2.647882,6.05021 -3.089863,9.66318 -0.333116,2.72305 -0.419097,1.40655 -0.11004,-1.68489 0.56688,-5.67038 1.934385,-9.29878 4.484362,-11.89836 2.586437,-2.63674 5.64691,-3.610944 10.529661,-3.351784 3.684627,0.195574 5.742906,0.812714 9.088641,2.725084 1.504928,0.8602 3.510758,1.82881 4.457398,2.15247 3.23701,1.10676 7.17915,0.65821 12.30451,-1.40005 1.60073,-0.64282 3.55175,-1.28874 4.33559,-1.43537 2.97483,-0.55648 7.00349,-0.1104 9.22131,1.02104 2.88644,1.47256 4.52003,5.21294 5.11917,11.7212 0.39113,4.24872 0.22088,4.81755 -0.49229,1.6448 z M 89.210303,96.183221 c -0.0642,-6.389725 3.835784,-11.57269 10.16761,-13.512443 1.328677,-0.407039 2.428667,-0.481192 6.746877,-0.454822 2.83765,0.01733 5.75469,0.150276 6.48229,0.29544 1.07132,0.213738 0.36687,0.265895 -3.70417,0.274248 -4.21481,0.0087 -5.36043,0.0986 -7.09017,0.556686 -3.926675,1.039905 -6.051729,2.457786 -8.364407,5.580917 -1.608648,2.172375 -3.044108,5.05232 -3.762365,7.54838 l -0.456816,1.5875 -0.01884,-1.875906 z m 28.556157,0.312301 c 3.4963,-2.674763 9.50253,-3.532209 13.97157,-1.994575 0.91765,0.315727 1.6247,0.617813 1.57121,0.671296 -0.0535,0.05349 -0.80429,-0.01855 -1.66845,-0.160049 -4.44407,-0.727739 -8.36238,-0.179478 -14.27121,1.996871 -0.29104,0.107196 -0.11245,-0.123897 0.39688,-0.513543 z M 95.547736,94.998295 c -0.01122,-2.630239 0.619458,-4.103248 2.599547,-6.071576 1.452002,-1.443376 2.099097,-1.87407 3.699707,-2.462456 2.5437,-0.935067 5.78643,-1.483535 9.70176,-1.640933 l 3.175,-0.127637 -2.77813,0.512812 c -9.03259,1.66732 -13.613457,4.51081 -15.79025,9.801522 l -0.601356,1.4616 -0.0063,-1.473332 z m 17.456194,-0.174228 c 2.02053,-2.568692 6.66868,-4.068532 12.43544,-4.01261 3.83995,0.03724 4.34065,0.371557 0.88016,0.587679 -3.8522,0.240583 -7.39192,1.157904 -10.85911,2.814146 -1.53398,0.732768 -2.84193,1.332304 -2.90655,1.332304 -0.0646,0 0.13791,-0.324684 0.45006,-0.721519 z m -11.61852,-0.549111 c 0.35109,-0.626084 1.17783,-1.816709 1.83721,-2.645833 1.41708,-1.781869 3.92002,-3.170905 7.22599,-4.010139 2.66212,-0.675791 8.70456,-1.212009 9.35984,-0.830612 0.37681,0.219313 0.23234,0.276241 -0.71908,0.283348 -1.83608,0.01371 -5.67217,0.755356 -8.35942,1.616159 -2.83537,0.908251 -5.52245,2.563821 -8.16912,5.033174 l -1.81375,1.692241 z m 5.89766,0.274836 c 0.62068,-1.200256 3.23711,-3.485901 4.76275,-4.16061 0.78362,-0.346557 2.36158,-0.828215 3.50656,-1.070348 2.55341,-0.53998 8.69461,-0.814845 9.62241,-0.430676 0.53343,0.220875 0.22617,0.278146 -1.5875,0.295897 -5.79166,0.05669 -10.45022,1.569209 -14.66965,4.762886 -0.9694,0.733732 -1.81883,1.334061 -1.88762,1.334061 -0.0688,0 0.0451,-0.329043 0.25305,-0.73121 z"
       id="path3237"
       inkscape:connector-curvature="0" />
  </g>
</svg>
